<svg width="299" height="26" viewBox="0 0 299 26" fill="none" xmlns="http://www.w3.org/2000/svg">
<path d="M6.82 25H0.628V1.24H6.82V25ZM35.3089 25H28.4329L21.0529 12.148L19.2529 8.548H19.2169L19.3609 13.012V25H13.8889V1.24H20.7649L28.1449 14.092L29.9449 17.692H29.9809L29.8369 13.228V1.24H35.3089V25ZM51.6605 0.879999C53.9165 0.879999 55.8365 1.216 57.4205 1.888C59.0285 2.56 60.5165 3.652 61.8845 5.164L58.3925 9.196C57.6005 7.996 56.6645 7.12 55.5845 6.568C54.5285 5.992 53.2565 5.704 51.7685 5.704C50.5205 5.704 49.5605 5.92 48.8885 6.352C48.2165 6.784 47.8805 7.36 47.8805 8.08C47.8805 8.68 48.2285 9.172 48.9245 9.556C49.6445 9.916 50.8565 10.252 52.5605 10.564C55.8485 11.164 58.1885 12.04 59.5805 13.192C60.9965 14.344 61.7045 15.964 61.7045 18.052C61.7045 19.564 61.2725 20.872 60.4085 21.976C59.5445 23.08 58.3445 23.92 56.8085 24.496C55.2965 25.072 53.5805 25.36 51.6605 25.36C48.9725 25.36 46.7885 25.036 45.1085 24.388C43.4285 23.716 41.9765 22.696 40.7525 21.328L43.9205 17.008C44.8565 18.304 45.9125 19.216 47.0885 19.744C48.2645 20.272 49.6805 20.536 51.3365 20.536C52.6565 20.536 53.6405 20.356 54.2885 19.996C54.9605 19.612 55.2965 19.072 55.2965 18.376C55.2965 17.824 54.9365 17.38 54.2165 17.044C53.5205 16.684 52.3445 16.348 50.6885 16.036C48.6485 15.628 46.9565 15.148 45.6125 14.596C44.2925 14.02 43.2605 13.252 42.5165 12.292C41.7965 11.332 41.4365 10.108 41.4365 8.62C41.4365 7.132 41.8325 5.8 42.6245 4.624C43.4405 3.448 44.6165 2.536 46.1525 1.888C47.7125 1.216 49.5485 0.879999 51.6605 0.879999ZM86.8986 6.028H79.1586V25H72.9666V6.028H65.1906V1.24H86.8986V6.028ZM102.647 19.636H94.4389L92.7829 25H86.5549L94.9069 1.24H102.323L110.639 25H104.267L102.647 19.636ZM101.351 15.424L99.6229 9.736L98.5789 5.992H98.5069L97.5349 9.7L95.7349 15.424H101.351ZM124.718 25H117.77L110.93 1.24H117.59L121.514 20.14L125.798 1.24H131.414L135.77 20.104L139.694 1.24H146.102L139.226 25H132.494L129.686 13.48L128.606 7.684H128.534L127.49 13.48L124.718 25ZM169.865 20.212V25H150.893V1.24H169.397V6.028H157.085V10.852H166.877V15.352H157.085V20.212H169.865ZM189.012 19.636H180.804L179.148 25H172.92L181.272 1.24H188.688L197.004 25H190.632L189.012 19.636ZM187.716 15.424L185.988 9.736L184.944 5.992H184.872L183.9 9.7L182.1 15.424H187.716ZM218.348 6.028H210.608V25H204.416V6.028H196.64V1.24H218.348V6.028ZM245.143 1.24V25H238.951V15.424H229.879V25H223.687V1.24H229.879V10.636H238.951V1.24H245.143ZM271.178 20.212V25H252.206V1.24H270.71V6.028H258.398V10.852H268.19V15.352H258.398V20.212H271.178ZM286.509 16.324H282.801V25H276.717V1.24H288.057C290.937 1.24 293.145 1.888 294.681 3.184C296.241 4.48 297.021 6.352 297.021 8.8C297.021 10.528 296.625 11.968 295.833 13.12C295.041 14.272 293.889 15.124 292.377 15.676L298.425 25H291.585L286.509 16.324ZM282.801 11.932H287.013C288.333 11.932 289.293 11.692 289.893 11.212C290.493 10.732 290.793 9.964 290.793 8.908C290.793 7.876 290.493 7.12 289.893 6.64C289.293 6.16 288.333 5.92 287.013 5.92H282.801V11.932Z" fill="white"/>
</svg>
